<svg width="34" height="34" viewBox="0 0 34 34" fill="none" xmlns="http://www.w3.org/2000/svg">
<rect width="34" height="34" rx="10" fill="#0F172A"/>
<path d="M11.4258 19.7305C11.4258 20.5143 11.1523 21.1113 10.6055 21.5215C10.0632 21.9316 9.24967 22.1367 8.16504 22.1367C7.60905 22.1367 7.13509 22.098 6.74316 22.0205C6.35124 21.9476 5.98438 21.8382 5.64258 21.6924V19.9697C6.02995 20.152 6.46517 20.3047 6.94824 20.4277C7.43587 20.5508 7.86426 20.6123 8.2334 20.6123C8.98991 20.6123 9.36816 20.3936 9.36816 19.9561C9.36816 19.792 9.31803 19.6598 9.21777 19.5596C9.11751 19.4548 8.94434 19.3385 8.69824 19.2109C8.45215 19.0788 8.12402 18.9261 7.71387 18.7529C7.12598 18.5068 6.69303 18.279 6.41504 18.0693C6.1416 17.8597 5.94108 17.6204 5.81348 17.3516C5.69043 17.0781 5.62891 16.7432 5.62891 16.3467C5.62891 15.6676 5.89095 15.1436 6.41504 14.7744C6.94368 14.4007 7.69108 14.2139 8.65723 14.2139C9.5778 14.2139 10.4733 14.4144 11.3438 14.8154L10.7148 16.3193C10.332 16.1553 9.97428 16.0208 9.6416 15.916C9.30892 15.8112 8.9694 15.7588 8.62305 15.7588C8.00781 15.7588 7.7002 15.9251 7.7002 16.2578C7.7002 16.4447 7.79818 16.6064 7.99414 16.7432C8.19466 16.8799 8.62988 17.0827 9.2998 17.3516C9.89681 17.5931 10.3343 17.8187 10.6123 18.0283C10.8903 18.238 11.0954 18.4795 11.2275 18.7529C11.3597 19.0264 11.4258 19.3522 11.4258 19.7305ZM19.8955 22H17.8105V17.5361C17.8105 16.9847 17.7171 16.5723 17.5303 16.2988C17.348 16.0208 17.0586 15.8818 16.6621 15.8818C16.1289 15.8818 15.7415 16.0778 15.5 16.4697C15.2585 16.8617 15.1377 17.5065 15.1377 18.4043V22H13.0527V14.3574H14.6455L14.9258 15.335H15.042C15.2471 14.984 15.5433 14.7106 15.9307 14.5146C16.318 14.3141 16.7624 14.2139 17.2637 14.2139C18.4076 14.2139 19.1823 14.5876 19.5879 15.335H19.7725C19.9775 14.9795 20.2783 14.7038 20.6748 14.5078C21.0758 14.3118 21.527 14.2139 22.0283 14.2139C22.8942 14.2139 23.5482 14.4372 23.9902 14.8838C24.4368 15.3258 24.6602 16.0368 24.6602 17.0166V22H22.5684V17.5361C22.5684 16.9847 22.4749 16.5723 22.2881 16.2988C22.1058 16.0208 21.8164 15.8818 21.4199 15.8818C20.9095 15.8818 20.5267 16.0641 20.2715 16.4287C20.0208 16.7933 19.8955 17.3721 19.8955 18.165V22ZM26.5127 21.0225C26.5127 20.6396 26.6152 20.3503 26.8203 20.1543C27.0254 19.9583 27.3239 19.8604 27.7158 19.8604C28.0941 19.8604 28.3857 19.9606 28.5908 20.1611C28.8005 20.3617 28.9053 20.6488 28.9053 21.0225C28.9053 21.3825 28.8005 21.6673 28.5908 21.877C28.3812 22.082 28.0895 22.1846 27.7158 22.1846C27.333 22.1846 27.0368 22.0843 26.8271 21.8838C26.6175 21.6787 26.5127 21.3916 26.5127 21.0225Z" fill="#6EE7B7"/>
</svg>
